{"title":"The Family 2013 CAM XViD UNiQUE ","uid":8941529,"size":1507774817,"categoryP":"video","categoryS":"movies","magnet":"?xt=urn:btih:8337274dcf1ff37226189dc5220f1354fcff310f&amp;dn=The+Family+2013+CAM+XViD+UNiQUE+&amp;tr=udp%3A%2F%2Ftracker.openbittorrent.com%3A80&amp;tr=udp%3A%2F%2Fopen.demonii.com%3A1337&amp;tr=udp%3A%2F%2Ftracker.coppersurfer.tk%3A6969&amp;tr=udp%3A%2F%2Fexodus.desync.com%3A6969","seeders":12,"leechers":2,"uploader":"srkfan","files":-1,"time":1379670193,"description":" &lt;a href=&quot;http://img9.imageshack.us/img9/4425/j6zt.jpg&quot; rel=&quot;nofollow&quot; target=&quot;_NEW&quot;&gt;http://img9.imageshack.us/img9/4425/j6zt.jpg&lt;/a&gt;\nFormat                                   : AVI\nFormat/Info                              : Audio Video Interleave\nFile size                                : 1.39 GiB\nDuration                                 : 1h 45mn\nOverall bit rate                         : 1 887 Kbps\nWriting application                      : VirtualDubMod 1.5.10.2 (build 2540/release)\nWriting library                          : VirtualDubMod build 2540/release\n\nVideo\nID                                       : 0\nFormat                                   : MPEG-4 Visual\nFormat profile                           : Advanced Simple@L5\nFormat settings, BVOP                    : 2\nFormat settings, QPel                    : No\nFormat settings, GMC                     : No warppoints\nFormat settings, Matrix                  : Default (H.263)\nMuxing mode                              : Packed bitstream\nCodec ID                                 : XVID\nCodec ID/Hint                            : XviD\nDuration                                 : 1h 45mn\nBit rate                                 : 1 747 Kbps\nWidth                                    : 720 pixels\nHeight                                   : 294 pixels\nDisplay aspect ratio                     : 2.40:1\nFrame rate                               : 29.970 fps\nColor space                              : YUV\nChroma subsampling                       : 4:2:0\nBit depth                                : 8 bits\nScan type                                : Progressive\nCompression mode                         : Lossy\nBits/(Pixel*Frame)                       : 0.275\nStream size                              : 1.28 GiB (93%)\nWriting library                          : XviD 64\n\nAudio\nID                                       : 1\nFormat                                   : MPEG Audio\nFormat version                           : Version 1\nFormat profile                           : Layer 3\nCodec ID                                 : 55\nCodec ID/Hint                            : MP3\nDuration                                 : 1h 45mn\nBit rate mode                            : Constant\nBit rate                                 : 128 Kbps\nChannel(s)                               : 2 channels\nSampling rate                            : 48.0 KHz\nCompression mode                         : Lossy\nStream size                              : 96.4 MiB (7%)\nAlignment                                : Split accross interleaves\nInterleave, duration                     : 33 ms (1.00 video frame)\nInterleave, preload duration             : 500 ms\n &lt;a href=&quot;\nhttp://www.imdb.com/title/tt2404311/&quot; rel=&quot;nofollow&quot; target=&quot;_NEW&quot;&gt;\nhttp://www.imdb.com/title/tt2404311/&lt;/a&gt;\n\n\n\nStoryline\n\nA mafia boss and his family are relocated to a sleepy town in France under the witness protection program after snitching on the mob. Despite the best efforts of CIA Agent Stansfield (Tommy Lee Jones) to keep them in line, Fred Manzoni (Robert De Niro), his wife Maggie (Michelle Pfeiffer) and their children Belle (Dianna Agron) and Warren (John D'Leo) can't help but revert to old habits and blow their cover by handling their problems the &quot;family&quot; way, enabling their former mafia cronies to track them down. Chaos ensues as old scores are settled in the unlikeliest of settings in this darkly funny film by Luc Besson\n\nSource Used  BLACKTOP  - Thanks\n\nGreets now going out to !\n\nJUSTiCE,KiSSMYACE and the rest can just KMA    \n\nWe did this we did that but we did it better \n &lt;a href=&quot;\nhttp://img203.imageshack.us/img203/6848/apux.png&quot; rel=&quot;nofollow&quot; target=&quot;_NEW&quot;&gt;\nhttp://img203.imageshack.us/img203/6848/apux.png&lt;/a&gt; &lt;a href=&quot;\nhttp://img138.imageshack.us/img138/9985/s1k.png&quot; rel=&quot;nofollow&quot; target=&quot;_NEW&quot;&gt;\nhttp://img138.imageshack.us/img138/9985/s1k.png&lt;/a&gt; &lt;a href=&quot;\nhttp://img823.imageshack.us/img823/685/kjfv.png&quot; rel=&quot;nofollow&quot; target=&quot;_NEW&quot;&gt;\nhttp://img823.imageshack.us/img823/685/kjfv.png&lt;/a&gt;","torrent":{"xt":"urn:btih:8337274dcf1ff37226189dc5220f1354fcff310f","amp;dn":"The+Family+2013+CAM+XViD+UNiQUE+","amp;tr":["udp%3A%2F%2Ftracker.openbittorrent.com%3A80","udp%3A%2F%2Fopen.demonii.com%3A1337","udp%3A%2F%2Ftracker.coppersurfer.tk%3A6969","udp%3A%2F%2Fexodus.desync.com%3A6969"],"infoHash":"8337274dcf1ff37226189dc5220f1354fcff310f","infoHashBuffer":{"type":"Buffer","data":[131,55,39,77,207,31,243,114,38,24,157,197,34,15,19,84,252,255,49,15]},"announce":[],"urlList":[]}}